<mxfile host="app.diagrams.net" modified="2020-09-02T14:43:12.403Z" agent="5.0 (Windows NT 10.0; Win64; x64) AppleWebKit/537.36 (KHTML, like Gecko) Chrome/85.0.4183.83 Safari/537.36" etag="ACyyrWNXnPbm8cxR3dfr" version="13.6.6" type="github">
  <diagram id="C5RBs43oDa-KdzZeNtuy" name="Page-1">
    <mxGraphModel dx="1221" dy="654" grid="1" gridSize="10" guides="1" tooltips="1" connect="1" arrows="1" fold="1" page="1" pageScale="1" pageWidth="827" pageHeight="1169" math="0" shadow="0">
      <root>
        <mxCell id="WIyWlLk6GJQsqaUBKTNV-0" />
        <mxCell id="WIyWlLk6GJQsqaUBKTNV-1" parent="WIyWlLk6GJQsqaUBKTNV-0" />
        <mxCell id="Ykkm6-e7kWJRtsOs7wSl-0" value="" style="rounded=1;whiteSpace=wrap;html=1;fillColor=#f5f5f5;strokeColor=#666666;fontColor=#333333;" vertex="1" parent="WIyWlLk6GJQsqaUBKTNV-1">
          <mxGeometry x="50" y="10" width="760" height="530" as="geometry" />
        </mxCell>
        <mxCell id="Ykkm6-e7kWJRtsOs7wSl-1" value="&lt;font size=&quot;1&quot;&gt;&lt;b style=&quot;font-size: 27px&quot;&gt;Covid 19 Tracker&lt;/b&gt;&lt;/font&gt;" style="text;html=1;strokeColor=none;fillColor=none;align=center;verticalAlign=middle;whiteSpace=wrap;rounded=0;" vertex="1" parent="WIyWlLk6GJQsqaUBKTNV-1">
          <mxGeometry x="100" y="40" width="230" height="40" as="geometry" />
        </mxCell>
        <mxCell id="Ykkm6-e7kWJRtsOs7wSl-2" value="&lt;font style=&quot;font-size: 15px&quot;&gt;&lt;b&gt;World Wide&lt;/b&gt;&lt;/font&gt;" style="rounded=1;whiteSpace=wrap;html=1;" vertex="1" parent="WIyWlLk6GJQsqaUBKTNV-1">
          <mxGeometry x="360" y="40" width="150" height="40" as="geometry" />
        </mxCell>
        <mxCell id="Ykkm6-e7kWJRtsOs7wSl-4" value="" style="rounded=1;whiteSpace=wrap;html=1;" vertex="1" parent="WIyWlLk6GJQsqaUBKTNV-1">
          <mxGeometry x="94" y="100" width="120" height="60" as="geometry" />
        </mxCell>
        <mxCell id="Ykkm6-e7kWJRtsOs7wSl-5" value="" style="rounded=1;whiteSpace=wrap;html=1;" vertex="1" parent="WIyWlLk6GJQsqaUBKTNV-1">
          <mxGeometry x="245" y="100" width="120" height="60" as="geometry" />
        </mxCell>
        <mxCell id="Ykkm6-e7kWJRtsOs7wSl-6" value="" style="rounded=1;whiteSpace=wrap;html=1;" vertex="1" parent="WIyWlLk6GJQsqaUBKTNV-1">
          <mxGeometry x="390" y="100" width="120" height="60" as="geometry" />
        </mxCell>
        <mxCell id="Ykkm6-e7kWJRtsOs7wSl-7" value="Coronavirus cases" style="text;html=1;strokeColor=none;fillColor=none;align=center;verticalAlign=middle;whiteSpace=wrap;rounded=0;" vertex="1" parent="WIyWlLk6GJQsqaUBKTNV-1">
          <mxGeometry x="94" y="100" width="120" height="20" as="geometry" />
        </mxCell>
        <mxCell id="Ykkm6-e7kWJRtsOs7wSl-8" value="+2000" style="text;html=1;strokeColor=none;fillColor=none;align=center;verticalAlign=middle;whiteSpace=wrap;rounded=0;" vertex="1" parent="WIyWlLk6GJQsqaUBKTNV-1">
          <mxGeometry x="78" y="120" width="80" height="20" as="geometry" />
        </mxCell>
        <mxCell id="Ykkm6-e7kWJRtsOs7wSl-9" value="1.2M Total" style="text;html=1;strokeColor=none;fillColor=none;align=center;verticalAlign=middle;whiteSpace=wrap;rounded=0;" vertex="1" parent="WIyWlLk6GJQsqaUBKTNV-1">
          <mxGeometry x="84" y="140" width="90" height="20" as="geometry" />
        </mxCell>
        <mxCell id="Ykkm6-e7kWJRtsOs7wSl-10" value="Recovered" style="text;html=1;strokeColor=none;fillColor=none;align=left;verticalAlign=middle;whiteSpace=wrap;rounded=0;" vertex="1" parent="WIyWlLk6GJQsqaUBKTNV-1">
          <mxGeometry x="270" y="100" width="120" height="20" as="geometry" />
        </mxCell>
        <mxCell id="Ykkm6-e7kWJRtsOs7wSl-11" value="+2000" style="text;html=1;strokeColor=none;fillColor=none;align=center;verticalAlign=middle;whiteSpace=wrap;rounded=0;" vertex="1" parent="WIyWlLk6GJQsqaUBKTNV-1">
          <mxGeometry x="230" y="120" width="120" height="20" as="geometry" />
        </mxCell>
        <mxCell id="Ykkm6-e7kWJRtsOs7wSl-12" value="1.2M Total" style="text;html=1;strokeColor=none;fillColor=none;align=center;verticalAlign=middle;whiteSpace=wrap;rounded=0;" vertex="1" parent="WIyWlLk6GJQsqaUBKTNV-1">
          <mxGeometry x="240" y="140" width="120" height="20" as="geometry" />
        </mxCell>
        <mxCell id="Ykkm6-e7kWJRtsOs7wSl-13" value="Deaths" style="text;html=1;strokeColor=none;fillColor=none;align=left;verticalAlign=middle;whiteSpace=wrap;rounded=0;" vertex="1" parent="WIyWlLk6GJQsqaUBKTNV-1">
          <mxGeometry x="410" y="100" width="120" height="20" as="geometry" />
        </mxCell>
        <mxCell id="Ykkm6-e7kWJRtsOs7wSl-14" value="+2000" style="text;html=1;strokeColor=none;fillColor=none;align=center;verticalAlign=middle;whiteSpace=wrap;rounded=0;" vertex="1" parent="WIyWlLk6GJQsqaUBKTNV-1">
          <mxGeometry x="370" y="120" width="120" height="20" as="geometry" />
        </mxCell>
        <mxCell id="Ykkm6-e7kWJRtsOs7wSl-15" value="1.2M Total" style="text;html=1;strokeColor=none;fillColor=none;align=center;verticalAlign=middle;whiteSpace=wrap;rounded=0;" vertex="1" parent="WIyWlLk6GJQsqaUBKTNV-1">
          <mxGeometry x="380" y="140" width="120" height="20" as="geometry" />
        </mxCell>
        <mxCell id="Ykkm6-e7kWJRtsOs7wSl-16" value="" style="rounded=1;whiteSpace=wrap;html=1;" vertex="1" parent="WIyWlLk6GJQsqaUBKTNV-1">
          <mxGeometry x="94" y="174" width="420" height="230" as="geometry" />
        </mxCell>
        <mxCell id="Ykkm6-e7kWJRtsOs7wSl-17" value="" style="shape=image;html=1;verticalAlign=top;verticalLabelPosition=bottom;labelBackgroundColor=#ffffff;imageAspect=0;aspect=fixed;image=https://cdn4.iconfinder.com/data/icons/small-n-flat/24/map-128.png" vertex="1" parent="WIyWlLk6GJQsqaUBKTNV-1">
          <mxGeometry x="222" y="220" width="128" height="128" as="geometry" />
        </mxCell>
        <mxCell id="Ykkm6-e7kWJRtsOs7wSl-18" value="" style="rounded=1;whiteSpace=wrap;html=1;" vertex="1" parent="WIyWlLk6GJQsqaUBKTNV-1">
          <mxGeometry x="530" y="40" width="240" height="360" as="geometry" />
        </mxCell>
        <mxCell id="Ykkm6-e7kWJRtsOs7wSl-19" value="&lt;font style=&quot;font-size: 17px&quot;&gt;Cases By Country&lt;/font&gt;" style="text;html=1;strokeColor=none;fillColor=none;align=left;verticalAlign=middle;whiteSpace=wrap;rounded=0;" vertex="1" parent="WIyWlLk6GJQsqaUBKTNV-1">
          <mxGeometry x="540" y="60" width="180" height="20" as="geometry" />
        </mxCell>
        <mxCell id="Ykkm6-e7kWJRtsOs7wSl-20" value="&lt;font style=&quot;font-size: 17px&quot;&gt;WorldWide New Cases&lt;/font&gt;" style="text;html=1;strokeColor=none;fillColor=none;align=left;verticalAlign=middle;whiteSpace=wrap;rounded=0;" vertex="1" parent="WIyWlLk6GJQsqaUBKTNV-1">
          <mxGeometry x="540" y="220" width="230" height="20" as="geometry" />
        </mxCell>
        <mxCell id="Ykkm6-e7kWJRtsOs7wSl-21" value="" style="fillColor=#10739E;strokeColor=none;" vertex="1" parent="WIyWlLk6GJQsqaUBKTNV-1">
          <mxGeometry x="570" y="280" width="30" height="100" as="geometry" />
        </mxCell>
        <mxCell id="Ykkm6-e7kWJRtsOs7wSl-22" value="" style="shape=mxgraph.arrows2.arrow;dy=0.4;dx=16;notch=0;direction=north;fillColor=#1699D3;strokeColor=none;" vertex="1" parent="Ykkm6-e7kWJRtsOs7wSl-21">
          <mxGeometry x="3" y="30" width="24" height="70" as="geometry" />
        </mxCell>
        <mxCell id="Ykkm6-e7kWJRtsOs7wSl-23" value="Label" style="text;html=1;align=center;verticalAlign=middle;whiteSpace=wrap;fontColor=#FFFFFF;fontSize=10;" vertex="1" parent="Ykkm6-e7kWJRtsOs7wSl-21">
          <mxGeometry width="30" height="20" as="geometry" />
        </mxCell>
        <mxCell id="Ykkm6-e7kWJRtsOs7wSl-24" value="" style="fillColor=#F2931E;strokeColor=none;" vertex="1" parent="WIyWlLk6GJQsqaUBKTNV-1">
          <mxGeometry x="605" y="260" width="30" height="120" as="geometry" />
        </mxCell>
        <mxCell id="Ykkm6-e7kWJRtsOs7wSl-25" value="" style="shape=mxgraph.arrows2.arrow;dy=0.4;dx=16;notch=0;direction=south;fillColor=#F5AB50;strokeColor=none;" vertex="1" parent="Ykkm6-e7kWJRtsOs7wSl-24">
          <mxGeometry x="3" width="24" height="80" as="geometry" />
        </mxCell>
        <mxCell id="Ykkm6-e7kWJRtsOs7wSl-26" value="Label" style="text;html=1;align=center;verticalAlign=middle;whiteSpace=wrap;fontColor=#FFFFFF;fontSize=10;" vertex="1" parent="Ykkm6-e7kWJRtsOs7wSl-24">
          <mxGeometry width="30" height="20" as="geometry" />
        </mxCell>
        <mxCell id="Ykkm6-e7kWJRtsOs7wSl-27" value="" style="fillColor=#AE4132;strokeColor=none;" vertex="1" parent="WIyWlLk6GJQsqaUBKTNV-1">
          <mxGeometry x="640" y="250" width="30" height="130" as="geometry" />
        </mxCell>
        <mxCell id="Ykkm6-e7kWJRtsOs7wSl-28" value="" style="shape=mxgraph.arrows2.arrow;dy=0.4;dx=16;notch=0;direction=north;fillColor=#E85642;strokeColor=none;" vertex="1" parent="Ykkm6-e7kWJRtsOs7wSl-27">
          <mxGeometry x="3" y="80" width="24" height="50" as="geometry" />
        </mxCell>
        <mxCell id="Ykkm6-e7kWJRtsOs7wSl-29" value="Label" style="text;html=1;align=center;verticalAlign=middle;whiteSpace=wrap;fontColor=#FFFFFF;fontSize=10;" vertex="1" parent="Ykkm6-e7kWJRtsOs7wSl-27">
          <mxGeometry width="30" height="20" as="geometry" />
        </mxCell>
        <mxCell id="Ykkm6-e7kWJRtsOs7wSl-30" value="" style="fillColor=#12AAB5;strokeColor=none;" vertex="1" parent="WIyWlLk6GJQsqaUBKTNV-1">
          <mxGeometry x="675" y="300" width="30" height="80" as="geometry" />
        </mxCell>
        <mxCell id="Ykkm6-e7kWJRtsOs7wSl-31" value="" style="shape=mxgraph.arrows2.arrow;dy=0.4;dx=16;notch=0;direction=south;fillColor=#64BBE2;strokeColor=none;" vertex="1" parent="Ykkm6-e7kWJRtsOs7wSl-30">
          <mxGeometry x="3" width="24" height="30" as="geometry" />
        </mxCell>
        <mxCell id="Ykkm6-e7kWJRtsOs7wSl-32" value="Label" style="text;html=1;align=center;verticalAlign=middle;whiteSpace=wrap;fontColor=#FFFFFF;fontSize=10;" vertex="1" parent="Ykkm6-e7kWJRtsOs7wSl-30">
          <mxGeometry width="30" height="20" as="geometry" />
        </mxCell>
        <mxCell id="Ykkm6-e7kWJRtsOs7wSl-33" value="" style="fillColor=#23445D;strokeColor=none;" vertex="1" parent="WIyWlLk6GJQsqaUBKTNV-1">
          <mxGeometry x="710" y="310" width="30" height="70" as="geometry" />
        </mxCell>
        <mxCell id="Ykkm6-e7kWJRtsOs7wSl-34" value="" style="shape=mxgraph.arrows2.arrow;dy=0.4;dx=16;notch=0;direction=north;fillColor=#2F5B7C;strokeColor=none;" vertex="1" parent="Ykkm6-e7kWJRtsOs7wSl-33">
          <mxGeometry x="3" y="10" width="24" height="60" as="geometry" />
        </mxCell>
        <mxCell id="Ykkm6-e7kWJRtsOs7wSl-35" value="Label" style="text;html=1;align=center;verticalAlign=middle;whiteSpace=wrap;fontColor=#FFFFFF;fontSize=10;" vertex="1" parent="Ykkm6-e7kWJRtsOs7wSl-33">
          <mxGeometry width="30" height="20" as="geometry" />
        </mxCell>
        <mxCell id="Ykkm6-e7kWJRtsOs7wSl-36" value="List" style="swimlane;fontStyle=0;childLayout=stackLayout;horizontal=1;startSize=26;fillColor=none;horizontalStack=0;resizeParent=1;resizeParentMax=0;resizeLast=0;collapsible=1;marginBottom=0;" vertex="1" parent="WIyWlLk6GJQsqaUBKTNV-1">
          <mxGeometry x="540" y="95" width="200" height="104" as="geometry" />
        </mxCell>
        <mxCell id="Ykkm6-e7kWJRtsOs7wSl-37" value="Item 1" style="text;strokeColor=none;fillColor=none;align=left;verticalAlign=top;spacingLeft=4;spacingRight=4;overflow=hidden;rotatable=0;points=[[0,0.5],[1,0.5]];portConstraint=eastwest;" vertex="1" parent="Ykkm6-e7kWJRtsOs7wSl-36">
          <mxGeometry y="26" width="200" height="26" as="geometry" />
        </mxCell>
        <mxCell id="Ykkm6-e7kWJRtsOs7wSl-38" value="Item 2" style="text;strokeColor=none;fillColor=none;align=left;verticalAlign=top;spacingLeft=4;spacingRight=4;overflow=hidden;rotatable=0;points=[[0,0.5],[1,0.5]];portConstraint=eastwest;" vertex="1" parent="Ykkm6-e7kWJRtsOs7wSl-36">
          <mxGeometry y="52" width="200" height="26" as="geometry" />
        </mxCell>
        <mxCell id="Ykkm6-e7kWJRtsOs7wSl-39" value="Item 3" style="text;strokeColor=none;fillColor=none;align=left;verticalAlign=top;spacingLeft=4;spacingRight=4;overflow=hidden;rotatable=0;points=[[0,0.5],[1,0.5]];portConstraint=eastwest;" vertex="1" parent="Ykkm6-e7kWJRtsOs7wSl-36">
          <mxGeometry y="78" width="200" height="26" as="geometry" />
        </mxCell>
        <mxCell id="Ykkm6-e7kWJRtsOs7wSl-40" value="" style="rounded=0;fillColor=#FFAB00;strokeColor=none;html=1" vertex="1" parent="WIyWlLk6GJQsqaUBKTNV-1">
          <mxGeometry x="100" y="430" width="660" height="80" as="geometry" />
        </mxCell>
        <mxCell id="Ykkm6-e7kWJRtsOs7wSl-41" value="&lt;b&gt;More information?&lt;/b&gt; See the &lt;u&gt;recovery process documentation&lt;/u&gt;." style="shape=mxgraph.azure.azure_alert;fillColor=#172B4C;strokeColor=none;fontColor=#172B4C;labelPosition=right;verticalLabelPosition=middle;align=left;verticalAlign=middle;html=1;spacingLeft=5" vertex="1" parent="Ykkm6-e7kWJRtsOs7wSl-40">
          <mxGeometry x="0.15" y="0.5" width="20" height="20" relative="1" as="geometry">
            <mxPoint y="-10" as="offset" />
          </mxGeometry>
        </mxCell>
      </root>
    </mxGraphModel>
  </diagram>
</mxfile>
